<?xml version="1.0" encoding="iso-8859-1"?>
<!-- Generator: Adobe Illustrator 19.0.0, SVG Export Plug-In . SVG Version: 6.00 Build 0)  -->
<svg version="1.1" id="Capa_1" xmlns="http://www.w3.org/2000/svg" xmlns:xlink="http://www.w3.org/1999/xlink" x="0px" y="0px"
	 viewBox="0 0 512 512" style="enable-background:new 0 0 512 512;" xml:space="preserve">
<circle style="fill:#C27C59;" cx="90.97" cy="141.747" r="90.97"/>
<circle style="fill:#FFDAB5;" cx="90.97" cy="141.747" r="43.874"/>
<circle style="fill:#C27C59;" cx="421.03" cy="141.747" r="90.97"/>
<circle style="opacity:0.1;enable-background:new    ;" cx="90.97" cy="141.747" r="90.97"/>
<circle style="opacity:0.1;enable-background:new    ;" cx="421.03" cy="141.747" r="90.97"/>
<circle style="fill:#FFDAB5;" cx="421.03" cy="141.747" r="43.874"/>
<path style="opacity:0.05;enable-background:new    ;" d="M433.04,130.396c-24.657-18.02-54.099-31.391-87.231-39.833
	c-9.942,14.582-15.757,32.202-15.757,51.182c0,50.243,40.73,90.974,90.974,90.974c28.279,0,53.544-12.903,70.23-33.143
	C478.548,172.714,459.014,149.378,433.04,130.396z"/>
<path style="opacity:0.05;enable-background:new    ;" d="M166.191,90.564c-33.132,8.442-62.574,21.813-87.231,39.833
	c-25.974,18.982-45.507,42.317-58.215,69.18c16.686,20.24,41.951,33.143,70.23,33.143c50.244,0,90.974-40.73,90.974-90.974
	C181.948,122.766,176.133,105.146,166.191,90.564z"/>
<path style="fill:#C27C59;" d="M256,461.223c130.417,0,232.667-64.109,232.667-180.65S386.417,99.923,256,99.923
	S23.333,164.031,23.333,280.573S125.583,461.223,256,461.223z"/>
<path style="fill:#FFDAB5;" d="M330.052,307.573c0-40.898-33.154-97.603-74.052-97.603s-74.052,56.705-74.052,97.603
	s33.154,60.858,74.052,60.858S330.052,348.471,330.052,307.573z"/>
<ellipse style="fill:#FFA6BB;" cx="132.44" cy="295.198" rx="39.956" ry="31.819"/>
<path style="fill:#414B58;" d="M139.12,265.13c-4.142,0-7.5-3.357-7.5-7.5v-17.15c0-4.143,3.358-7.5,7.5-7.5s7.5,3.357,7.5,7.5
	v17.15C146.62,261.772,143.262,265.13,139.12,265.13z"/>
<ellipse style="fill:#FFA6BB;" cx="379.56" cy="295.198" rx="39.956" ry="31.819"/>
<g>
	<path style="fill:#414B58;" d="M372.88,265.13c-4.142,0-7.5-3.357-7.5-7.5v-17.15c0-4.143,3.358-7.5,7.5-7.5s7.5,3.357,7.5,7.5
		v17.15C380.38,261.772,377.022,265.13,372.88,265.13z"/>
	<path style="fill:#414B58;" d="M256,336.142L256,336.142c-15.988,0-28.949-12.961-28.949-28.949v-21.046
		c0-4.364,3.538-7.902,7.902-7.902h42.092c4.364,0,7.902,3.538,7.902,7.902v21.046C284.949,323.181,271.988,336.142,256,336.142z"/>
	<path style="fill:#414B58;" d="M265.946,244.156L265.946,244.156c-6.52-1.707-13.371-1.707-19.891,0l0,0
		c-2.7,0.707-5.053,2.368-6.623,4.677l0,0c-2.12,3.117-0.901,7.393,2.543,8.925l9.555,4.249c2.846,1.266,6.095,1.266,8.941,0
		l9.555-4.249c3.445-1.532,4.663-5.807,2.543-8.925l0,0C270.999,246.524,268.646,244.863,265.946,244.156z"/>
</g>
<path style="opacity:0.1;enable-background:new    ;" d="M216.328,101.998C105.434,113.829,23.333,176.147,23.333,280.573
	c0,116.541,102.25,180.65,232.667,180.65c24.388,0,47.79-2.243,69.723-6.65C-17.086,368.286,138.697,139.764,216.328,101.998z"/>
<g>
</g>
<g>
</g>
<g>
</g>
<g>
</g>
<g>
</g>
<g>
</g>
<g>
</g>
<g>
</g>
<g>
</g>
<g>
</g>
<g>
</g>
<g>
</g>
<g>
</g>
<g>
</g>
<g>
</g>
</svg>
