<?xml version="1.0" encoding="iso-8859-1"?>
<!-- Generator: Adobe Illustrator 19.0.0, SVG Export Plug-In . SVG Version: 6.00 Build 0)  -->
<svg version="1.1" id="Layer_1" xmlns="http://www.w3.org/2000/svg" xmlns:xlink="http://www.w3.org/1999/xlink" x="0px" y="0px"
	 viewBox="0 0 512 512" style="enable-background:new 0 0 512 512;" xml:space="preserve">
<path style="fill:#7C7B87;" d="M300.003,423.576v-15.889c0-2.309,6.913-35.101,13.923-60.654c0,0-0.001-0.001-0.002-0.002
	c-0.541-0.573-14.178-51.397-14.178-51.397c-0.59,1.015-1.174,2.004-1.749,2.953c-11.877,19.604-22.362,40.018-31.658,60.969v78.75
	c0,0.001,0,0.003,0,0.003c0.076,0.516,0.14,1.035,0.179,1.563c0.043,0.54,0.067,1.086,0.067,1.639v9.115
	c0,0.366-0.036,0.723-0.089,1.075c0.715,3.484,3.799,6.105,7.495,6.105h26.013h9.725c3.965,0,7.18-3.215,7.18-7.18v-9.115
	C316.908,431.606,310.479,423.576,300.003,423.576z"/>
<path style="fill:#706F7A;" d="M316.908,441.512c0-2.202-0.335-4.302-0.944-6.251c-0.195-0.623-0.417-1.23-0.67-1.819
	c-0.068-0.158-0.124-0.324-0.196-0.479c-1.537-3.302-4.025-5.96-7.278-7.597c-0.388-0.195-0.784-0.379-1.194-0.544
	c-0.805-0.324-1.65-0.591-2.536-0.79c-1.284-0.289-2.642-0.455-4.086-0.455v-15.889c0-2.309,6.913-35.101,13.923-60.654
	c0,0-0.001-0.001-0.002-0.002c-0.541-0.573-14.178-51.397-14.178-51.397c-0.59,1.015-1.174,2.004-1.749,2.953
	c-0.579,0.955-1.139,1.921-1.711,2.88c-6.59,30.929-22.63,106.22-22.63,106.22v15.889c6.307,0,12.735,8.03,12.735,17.936v9.115
	c0,3.965-3.214,7.179-7.18,7.179h20.791h9.725c1.983,0,3.777-0.803,5.077-2.103c0.162-0.162,0.317-0.333,0.463-0.51
	c1.024-1.241,1.639-2.832,1.639-4.567v-9.115H316.908z"/>
<path style="fill:#7C7B87;" d="M118.679,423.576v-15.889c0-4.684,1.928-17.415,5.331-20.633l0.162-0.153
	c14.711-13.929,37.619-48.781,50.661-69.568l-51.73-10.083l-38.089,54.917v87.989c0,4.226,3.426,7.651,7.651,7.651h26.013h9.725
	c3.965,0,7.18-3.215,7.18-7.18v-9.116C135.583,431.606,129.155,423.576,118.679,423.576z"/>
<path style="fill:#706F7A;" d="M124.129,424.382c-1.664-0.524-3.486-0.806-5.45-0.806v-15.889c0-4.684,1.928-17.415,5.331-20.633
	l0.161-0.153c5.759-5.453,13.396-14.966,21.338-25.763c10.741-14.757,21.712-31.675,29.324-43.806l-24.44-4.764
	c-16.306,23.124-48.132,65.948-56.987,74.332l-0.161,0.153c-2.598,2.457-1.96,22.453-1.513,31.773c0.12,2.49,1.854,4.59,4.265,5.222
	c7.092,1.858,8.82,8.971,8.82,17.462v9.115c0,3.965-3.214,7.179-7.18,7.179h21.041h9.725c3.965,0,7.18-3.214,7.18-7.18v-9.115
	C135.583,433.463,131.339,426.653,124.129,424.382z"/>
<path style="fill:#8A8990;" d="M266.585,450.627L266.585,450.627v-9.116c0-0.554-0.024-1.1-0.067-1.639
	c-0.039-0.528-0.102-1.047-0.178-1.562v-0.002c-1.238-8.375-7.341-14.733-16.659-14.733v-15.889c0-2.019,6.572-17.846,14.051-35.202
	c0.835-1.937,1.712-3.804,2.608-5.642v-0.283c9.295-20.951,19.78-41.364,31.658-60.969c0.575-0.949,6.175-10.45,6.175-10.45
	s-4.637-55.998-4.649-56.082c-0.77-0.029-1.494-0.058-2.133-0.09c-121.793-6.069-149.731-83.09-155.975-113.302
	c-1.418-6.86,1.349-13.897,7.103-18.104l26.222-19.172h-17.487c-1.068,0-2.133,0.011-3.195,0.033
	C70.85,90.164,9.231,166.633,23.426,248.64l8.036,46.424v155.091c0,4.226,3.426,7.652,7.652,7.652h26.012h9.725
	c3.965,0,7.18-3.214,7.18-7.18v-9.116c0-9.906-6.429-17.935-16.904-17.935v-15.889c0-4.684,1.928-17.415,5.331-20.633l0.161-0.153
	c16.415-15.543,40.066-52.384,52.486-72.519c27.911,4.65,58.702,8.543,87.046,9.43c3.274,0.102,5.867,2.79,5.867,6.065v120.277
	c0,4.226,3.426,7.652,7.652,7.652h26.012h9.725c3.599,0,6.571-2.651,7.091-6.105C266.549,451.35,266.585,450.994,266.585,450.627z"
	/>
<path style="fill:#706F7A;" d="M35.655,164.227C14.716,173.156,0,193.943,0,218.106v20.762c0,4.203,3.406,7.609,7.609,7.609
	s7.609-3.406,7.609-7.609v-20.762c0-10.987,4.119-21.025,10.884-28.67C28.462,180.684,31.681,172.248,35.655,164.227z"/>
<g>
	<path style="fill:#7D7C84;" d="M65.125,423.576v-15.889c0-4.684,1.928-17.415,5.331-20.633l0.162-0.153
		c16.415-15.543,40.066-52.384,52.486-72.519c-0.096-0.016-0.192-0.032-0.289-0.048c-16.542-2.761-33.078,4.851-41.703,19.234
		c-9.295,15.5-20.427,33.229-30.667,45.48c-4.702,5.625-7.167,12.778-7.011,20.108l0.576,27.212
		c4.681,3.183,7.338,8.775,7.338,15.143v9.116c0,3.965-3.214,7.18-7.18,7.18h20.958h9.725c3.965,0,7.18-3.214,7.18-7.18v-9.116
		C82.029,431.606,75.601,423.576,65.125,423.576z"/>
	<path style="fill:#7D7C84;" d="M299.523,239.059c-0.77-0.029-1.494-0.058-2.133-0.09c-1.917-0.095-3.811-0.209-5.682-0.339
		c-0.143,0.753-0.252,1.513-0.32,2.281c-4.375,27.558-15.229,50.081-24.074,64.681c-12.995,21.45-24.341,43.861-34.266,66.894
		c-7.478,17.356-7.464,34.931-7.464,35.202v15.889c3.889,0,10.318,8.03,10.318,17.936v9.115c0,3.965-3.214,7.179-7.18,7.179h20.958
		h9.725c2.362,0,4.448-1.146,5.754-2.907c0.684-0.923,1.158-2.011,1.336-3.198c0.053-0.351,0.089-0.708,0.089-1.074l0,0v-9.115
		c0-0.554-0.024-1.1-0.067-1.639c-0.039-0.528-0.102-1.046-0.178-1.56c-0.153-1.034-0.381-2.036-0.678-3
		c-0.004-0.012-0.006-0.026-0.01-0.038c-0.594-1.909-1.47-3.661-2.598-5.201c-0.025-0.034-0.046-0.071-0.071-0.105
		c-0.231-0.31-0.481-0.605-0.733-0.897c-0.065-0.076-0.123-0.158-0.19-0.232c-0.174-0.195-0.365-0.373-0.548-0.558
		c-0.158-0.159-0.307-0.327-0.471-0.479c-0.094-0.087-0.198-0.163-0.294-0.247c-0.268-0.236-0.536-0.473-0.82-0.691
		c-0.036-0.028-0.076-0.05-0.112-0.078c-2.692-2.021-6.111-3.21-10.134-3.21l0,0v-15.889c0-2.019,6.572-17.846,14.051-35.202
		c1.919-4.455,3.909-8.878,5.936-13.283c0-0.001,0.001-0.002,0.001-0.003c2.66-5.783,5.419-11.52,8.271-17.209
		c0.001-0.002,0.002-0.003,0.003-0.005c0.931-1.855,1.868-3.707,2.819-5.551l0,0c1.933-3.749,3.917-7.47,5.939-11.171
		c0.001-0.003,0.003-0.005,0.004-0.008c0.44-0.806,0.885-1.61,1.326-2.415c1.167-2.111,2.351-4.211,3.548-6.306
		c0.003-0.005,0.006-0.01,0.008-0.015c0.493-0.862,0.983-1.726,1.477-2.587c1.619-2.794,3.258-5.577,4.932-8.34
		c0.575-0.949,6.175-10.45,6.175-10.45S299.535,239.143,299.523,239.059z"/>
</g>
<path style="fill:#7B7A87;" d="M504.531,107.563L443.977,63.29c-11.033-8.066-25.179-10.963-38.624-7.908l-65.165,14.805h-32.33
	l-65.165-14.805c-13.445-3.055-27.591-0.158-38.624,7.908l-60.554,44.273c-5.754,4.207-8.521,11.244-7.103,18.104
	c6.244,30.212,34.182,109.234,155.975,115.303c12.407,0.618,50.865,0.618,63.272,0c121.793-6.069,149.731-85.091,155.975-115.303
	C513.051,118.807,510.285,111.77,504.531,107.563z"/>
<path style="fill:#706F7A;" d="M136.746,127.229c0.009,0.04,0.019,0.083,0.028,0.123c0.353,1.595,0.763,3.306,1.238,5.116
	c1.273-7.242,3.134-13.502,5.503-15.234l35.285-11.895c11.136-3.754,22.145-7.925,32.752-12.984
	c9.579-4.569,20.577-5.843,31.14-3.443l65.165,14.805h32.33l65.165-14.805c10.564-2.4,21.561-1.126,31.14,3.443
	c10.607,5.059,21.616,9.23,32.752,12.984l35.285,11.895c2.369,1.732,4.231,7.992,5.503,15.234v-0.001
	c0.322-1.227,0.615-2.41,0.88-3.541c0.001-0.005,0.003-0.011,0.004-0.016c0.122-0.522,0.237-1.03,0.348-1.53
	c0.011-0.051,0.024-0.105,0.035-0.156c0.113-0.513,0.22-1.013,0.321-1.501c0.004-0.018,0.008-0.037,0.012-0.055
	c0.264-1.278,0.382-2.561,0.364-3.832c0-0.009,0.001-0.017,0.001-0.017c-0.041-2.566-0.639-5.07-1.731-7.36
	c-0.546-1.145-1.215-2.237-2-3.256c-1.046-1.358-2.298-2.587-3.737-3.639l-60.554-44.273c-11.033-8.066-25.179-10.963-38.624-7.908
	l-65.165,14.805h-32.33l-65.165-14.805c-13.445-3.055-27.591-0.158-38.624,7.908l-25.678,18.774l0,0l-8.525,6.233l-26.351,19.266
	c-1.438,1.052-2.69,2.28-3.737,3.639c-0.785,1.019-1.454,2.111-2,3.256s-0.968,2.344-1.259,3.575
	c-0.097,0.411-0.179,0.825-0.247,1.242c-0.135,0.835-0.211,1.681-0.224,2.534c-0.02,1.279,0.098,2.571,0.364,3.858
	C136.517,126.174,136.628,126.695,136.746,127.229z"/>
<g>
	<path style="fill:#959599;" d="M250.773,217.333c8.74,1.388,15.241-8.263,10.46-15.709c-0.547-0.852-1.13-1.495-1.73-1.84
		l-0.087-0.05l2.34-9.379c1.298-5.204,0.598-10.706-1.964-15.418l-7.368-13.555c-3.422-6.296-4.395-13.731-2.718-20.759l0,0
		c0.952-3.987,1.046-8.13,0.277-12.156l-0.914-4.783c-0.601-3.146-0.349-6.334,0.64-9.248c0.195-0.573-0.153-1.187-0.744-1.321
		l-14.106-3.205c-7.368-1.674-15.029-0.865-21.77,2.179c-7.943,3.586-16.016,6.879-24.274,9.663l-25.165,8.483
		c-0.12,0.041-0.234,0.096-0.33,0.179c-1.635,1.393-2.924,5.787-3.813,10.848C165.344,163.504,185.073,206.903,250.773,217.333z"/>
	<path style="fill:#959599;" d="M397.273,217.333c-8.74,1.388-15.241-8.263-10.46-15.709c0.547-0.852,1.13-1.495,1.73-1.84
		l0.087-0.05l-2.34-9.379c-1.298-5.204-0.597-10.706,1.964-15.418l7.368-13.555c3.422-6.296,4.395-13.731,2.718-20.759l0,0
		c-0.952-3.987-1.046-8.13-0.277-12.156l0.914-4.783c0.601-3.146,0.349-6.334-0.64-9.248c-0.195-0.573,0.153-1.187,0.744-1.321
		l14.106-3.205c7.368-1.674,15.029-0.865,21.77,2.179c7.943,3.586,16.016,6.879,24.274,9.663l25.165,8.483
		c0.12,0.041,0.234,0.096,0.33,0.179c1.635,1.393,2.924,5.787,3.813,10.848C482.702,163.504,462.973,206.903,397.273,217.333z"/>
</g>
<path style="fill:#E6E6E6;" d="M278.297,207.718l-1.487,5.979c-2.103,6.952-9.533,29.155-20.378,35.658
	c-12.916,7.744-23.955,0.336-25.908,4.028c-1.654,3.127,21.51,24.396,48.908,6.058c6.855-4.588,11.914-9.55,15.647-14.412
	c-0.003-0.018,1.765-2.213,3.813-4.902C297.396,220.542,281.983,209.976,278.297,207.718z"/>
<path style="fill:#CCCCCC;" d="M279.433,259.441c6.855-4.588,11.914-9.55,15.647-14.412c-0.003-0.018,1.765-2.213,3.813-4.902
	c-0.767-10.034-5.187-17.694-9.81-23.089c-0.671,1.591-1.312,3.452-1.915,5.634c-0.065,0.26-12.034,47.905-56.643,30.71
	c-0.155,0.293-0.092,0.746,0.172,1.31C233.251,260.15,254.603,276.06,279.433,259.441z"/>
<path style="fill:#E6E6E6;" d="M368.766,207.718l1.487,5.979c2.103,6.952,9.533,29.155,20.378,35.658
	c12.916,7.744,23.955,0.336,25.908,4.028c1.654,3.127-21.51,24.396-48.908,6.058c-6.855-4.588-11.914-9.55-15.647-14.412
	c0.003-0.018-1.765-2.213-3.813-4.902C349.667,220.542,365.081,209.976,368.766,207.718z"/>
<path style="fill:#CCCCCC;" d="M367.631,259.441c-6.855-4.588-11.914-9.55-15.647-14.412c0.003-0.018-1.765-2.213-3.813-4.902
	c0.767-10.034,5.187-17.694,9.81-23.089c0.671,1.591,1.312,3.452,1.915,5.634c0.065,0.26,12.034,47.905,56.643,30.71
	c0.155,0.293,0.092,0.746-0.172,1.31C413.813,260.15,392.46,276.06,367.631,259.441z"/>
<path style="fill:#7C7B87;" d="M404.871,297.777H369.29c-1.955,0-3.539,1.584-3.539,3.539v6.334c0,1.955,1.585,3.539,3.539,3.539
	h0.294v3.828c0,6.119-4.961,11.08-11.08,11.08s-11.08-4.961-11.08-11.08v-23.71c0-11.783,3.125-35.67,5.485-52.033
	c1.549-10.739,7.941-20.171,17.348-25.58l-3.385-13.567c-1.717-6.883-0.79-14.16,2.597-20.392l10.5-19.318
	c4.754-8.746,6.106-19.074,3.776-28.837l0,0c-1.322-5.538-1.453-11.294-0.385-16.887l1.269-6.645
	c1.689-8.843-1.455-17.935-8.159-23.595l-11.797-9.961c-11.654-9.84-26.173-15.206-41.143-15.206l0,0
	c-14.97,0-29.489,5.366-41.143,15.206l-11.797,9.961c-6.703,5.66-9.848,14.752-8.159,23.595l1.269,6.645
	c1.068,5.593,0.937,11.349-0.385,16.887l0,0c-2.331,9.763-0.979,20.091,3.775,28.837l10.501,19.318
	c3.388,6.233,4.315,13.509,2.598,20.392l-3.385,13.568l0.121,0.07c9.407,5.409,15.799,14.841,17.348,25.581
	c2.356,16.341,5.472,40.182,5.472,51.958v27.072c0,28.711,23.276,51.987,51.987,51.986l0,0
	c28.712-0.001,51.987-23.277,51.987-51.988v-7.184h1.151c1.955,0,3.539-1.585,3.539-3.539v-6.334
	C408.411,299.361,406.826,297.777,404.871,297.777z"/>
<path style="fill:#71707F;" d="M277.592,179.734c2.312,4.254,3.476,8.995,3.437,13.764c0,0,12.908-43.011,10.207-51.415
	c-2.74-8.524-20.528-19.284-26.945-22.935c0.321,4.16-0.002,8.354-0.975,12.43l0,0c-2.331,9.763-0.979,20.092,3.775,28.837
	L277.592,179.734z"/>
<path style="fill:#706F7A;" d="M384.453,135.405c-0.008-0.057-0.013-0.113-0.022-0.169c-0.014-0.094-0.022-0.188-0.036-0.282
	c-0.171-1.13-0.384-2.257-0.651-3.375c-0.308-1.291-0.545-2.595-0.724-3.905c-0.299-2.192-0.422-4.403-0.358-6.611
	c0.03-1.028,0.113-2.055,0.222-3.08c0.068-0.639,0.15-1.277,0.249-1.914c0.071-0.46,0.138-0.92,0.225-1.377l1.269-6.645
	c0.317-1.658,0.463-3.325,0.449-4.976c-0.037-4.105-1.083-8.109-2.988-11.65c-1.415-2.631-3.298-5.009-5.62-6.969l-2.124-1.794
	l-9.672-8.167c-10.88-9.186-24.257-14.469-38.166-15.131c-0.99-0.047-1.982-0.075-2.976-0.075l0,0
	c-4.844,0-9.638,0.571-14.306,1.664c9.758,2.286,18.953,6.886,26.836,13.542l11.797,9.961c6.704,5.66,9.848,14.752,8.159,23.595
	l-1.269,6.645c-1.082,5.666-0.873,11.483,0.436,17.1c0.707,3.036,1.059,6.125,1.065,9.202c-0.167,0.366-0.318,0.73-0.434,1.09
	c-0.427,1.329-0.463,3.524-0.223,6.276c-0.761,4.199-2.179,8.275-4.234,12.056l-10.5,19.317c-3.388,6.233-4.315,13.51-2.598,20.393
	l3.72,12.373c0.939,3.124,0.517,6.55-1.342,9.231c-0.011,0.015-0.022,0.031-0.032,0.046c-0.948,1.361-1.904,2.896-2.819,4.558
	c-9.405-3.811-19.949-3.573-29.212,0.728l-1.521,0.707c-3.719,1.728-5.333,6.143-3.605,9.862c1.727,3.718,6.143,5.332,9.862,3.605
	l1.519-0.706c5.717-2.654,12.255-2.704,18.006-0.166c-0.361,2.195-0.69,4.332-0.999,6.433c-6.735-1.832-13.937-1.258-20.377,1.733
	l-1.165,0.542c-3.719,1.728-5.333,6.143-3.605,9.862c1.727,3.718,6.143,5.331,9.861,3.605l1.164-0.541
	c3.891-1.807,8.333-1.844,12.256-0.146c-0.235,2.387-0.434,4.705-0.594,6.949c-5.09-1.187-10.466-0.665-15.303,1.58l-0.842,0.391
	c-3.718,1.729-5.331,6.145-3.602,9.863c1.729,3.719,6.144,5.331,9.863,3.602l0.838-0.39c2.348-1.089,5.042-1.088,7.385-0.002
	l0.842,0.392c0.092,0.042,0.186,0.072,0.278,0.111c0.316,46.682,20.159,54.125,35.208,48.719
	c14.327-5.146,16.005-16.296,16.057-21.877h-10.514v3.46v0.367c0,5.647-4.227,10.298-9.688,10.984
	c-0.035,0.005-0.069,0.012-0.105,0.016c-0.232,0.027-0.469,0.039-0.705,0.051c-0.126,0.007-0.248,0.025-0.375,0.027
	c-0.034,0-0.067-0.004-0.101-0.003c-0.036,0-0.071,0.005-0.107,0.005c-0.169,0-0.332-0.018-0.499-0.025
	c-0.179-0.008-0.36-0.01-0.537-0.027c-0.2-0.019-0.395-0.051-0.591-0.08c-0.173-0.026-0.347-0.046-0.518-0.079
	c-0.194-0.038-0.382-0.09-0.572-0.138c-0.167-0.042-0.335-0.079-0.499-0.128c-0.187-0.057-0.367-0.127-0.55-0.193
	c-0.159-0.058-0.321-0.11-0.477-0.174c-0.179-0.074-0.351-0.162-0.525-0.245c-0.151-0.072-0.305-0.139-0.453-0.218
	c-0.17-0.091-0.331-0.194-0.496-0.293c-0.143-0.086-0.288-0.167-0.427-0.259c-0.16-0.107-0.311-0.226-0.465-0.34
	c-0.132-0.099-0.268-0.192-0.396-0.296c-0.149-0.122-0.288-0.255-0.431-0.384c-0.122-0.11-0.248-0.216-0.364-0.331
	c-0.137-0.136-0.262-0.282-0.392-0.424c-0.11-0.121-0.226-0.238-0.33-0.364c-0.124-0.149-0.236-0.308-0.352-0.464
	c-0.098-0.131-0.201-0.256-0.293-0.391c-0.111-0.164-0.209-0.337-0.312-0.506c-0.083-0.137-0.172-0.269-0.249-0.41
	c-0.098-0.179-0.181-0.366-0.269-0.551c-0.067-0.141-0.142-0.278-0.203-0.422c-0.082-0.194-0.149-0.396-0.22-0.594
	c-0.051-0.143-0.111-0.282-0.157-0.428c-0.068-0.218-0.119-0.444-0.174-0.667c-0.033-0.134-0.075-0.264-0.103-0.399
	c-0.053-0.255-0.086-0.517-0.12-0.778c-0.015-0.11-0.039-0.217-0.05-0.328c-0.038-0.375-0.058-0.755-0.058-1.14v-23.71
	c0-0.439,0.006-0.901,0.014-1.373v-0.002c0-0.026,0.001-0.054,0.002-0.081c0.026-1.354,0.085-2.837,0.173-4.424
	c0.005-0.082,0.008-0.161,0.013-0.244c0,0,0-0.002,0-0.004c0.011-0.199,0.024-0.4,0.036-0.602c0.013-0.22,0.027-0.441,0.041-0.664
	v-0.003c0.015-0.226,0.029-0.452,0.045-0.682v-0.005c0.013-0.191,0.027-0.385,0.04-0.58l0.001-0.007
	c0.551-7.819,1.66-17.57,2.87-26.949c0.004-0.03,0.008-0.059,0.011-0.089c0.085-0.661,0.171-1.32,0.257-1.977
	c0.011-0.086,0.023-0.172,0.034-0.259c0.083-0.631,0.166-1.26,0.25-1.885c0.008-0.062,0.016-0.123,0.025-0.184
	c0.183-1.368,0.366-2.72,0.549-4.048c0.021-0.154,0.042-0.305,0.063-0.458c0.066-0.477,0.131-0.951,0.197-1.42
	c0.034-0.241,0.067-0.479,0.1-0.718c0.051-0.367,0.102-0.731,0.153-1.093c0.038-0.272,0.076-0.543,0.114-0.812
	c0.047-0.332,0.094-0.661,0.14-0.988c0.039-0.273,0.078-0.547,0.116-0.816c0.061-0.43,0.122-0.852,0.183-1.272
	c0.019-0.13,0.038-0.265,0.057-0.394c0.455-3.157,1.34-6.196,2.586-9.058c0.343-0.789,0.705-1.569,1.104-2.329
	c0.308-0.586,0.632-1.163,0.972-1.73c1.019-1.702,2.181-3.315,3.472-4.824c2.583-3.017,5.687-5.611,9.214-7.639l-3.385-13.567
	c-0.107-0.43-0.204-0.862-0.291-1.295c-0.347-1.732-0.529-3.482-0.55-5.229c-0.03-2.508,0.279-5.007,0.907-7.434
	c0.138-0.532,0.285-1.062,0.454-1.587c0.248-0.771,0.534-1.533,0.849-2.284c0.046-0.109,0.091-0.217,0.138-0.325
	c0.15-0.345,0.305-0.688,0.469-1.028c0.026-0.054,0.055-0.108,0.081-0.162c0.173-0.352,0.351-0.703,0.539-1.049l10.5-19.318
	c0.157-0.288,0.291-0.586,0.44-0.878c0.17-0.332,0.341-0.664,0.501-1c0.145-0.306,0.284-0.613,0.421-0.922
	c0.193-0.431,0.376-0.866,0.553-1.303c0.064-0.16,0.139-0.315,0.202-0.476c0.049-0.126,0.093-0.253,0.141-0.379
	c0.032-0.085,0.063-0.17,0.095-0.256c0.058-0.156,0.118-0.311,0.174-0.468c0.131-0.369,0.254-0.74,0.376-1.112
	c0.004-0.012,0.008-0.024,0.012-0.035c0.192-0.586,0.375-1.174,0.537-1.768c0.163-0.595,0.311-1.194,0.447-1.796
	c0.27-1.204,0.486-2.42,0.646-3.644c0.08-0.612,0.146-1.226,0.199-1.841c0.105-1.231,0.154-2.468,0.147-3.706
	c-0.003-0.619-0.021-1.239-0.053-1.858C384.746,137.782,384.62,136.592,384.453,135.405z"/>
<g>
	<path style="fill:#333333;" d="M283.425,159.565c-2.975,0-5.395-2.42-5.395-5.395c0-2.175-1.769-3.943-3.943-3.943
		c-2.975,0-5.395-2.42-5.395-5.395s2.42-5.395,5.395-5.395c8.124,0,14.734,6.61,14.734,14.734
		C288.82,157.145,286.4,159.565,283.425,159.565z"/>
	<path style="fill:#333333;" d="M358.159,159.565c-2.975,0-5.395-2.42-5.395-5.395c0-8.124,6.61-14.734,14.734-14.734
		c2.975,0,5.395,2.42,5.395,5.395s-2.42,5.395-5.395,5.395c-2.174,0-3.943,1.768-3.943,3.943
		C363.555,157.145,361.134,159.565,358.159,159.565z"/>
</g>
<g>
</g>
<g>
</g>
<g>
</g>
<g>
</g>
<g>
</g>
<g>
</g>
<g>
</g>
<g>
</g>
<g>
</g>
<g>
</g>
<g>
</g>
<g>
</g>
<g>
</g>
<g>
</g>
<g>
</g>
</svg>
