<svg id="Layer_3" enable-background="new 0 0 64 64" height="512" viewBox="0 0 64 64" width="512" xmlns="http://www.w3.org/2000/svg"><g><g><path d="m42 2h2v5h-2z" fill="#976947"/></g><g><path d="m45 2h2v6h-2z" fill="#976947"/></g><path d="m40.129 6.33-.129-.33-.132-.396c-.541-1.622-1.872-2.855-3.531-3.27l-1.337-.334v1.324c0 1.672.836 3.233 2.226 4.16l.774.516.237.167" fill="#976947"/><path d="m51.286 7.548-8.974-1.496c-.208-.035-.418-.052-.628-.052-2.056 0-3.744 1.626-3.82 3.681l-.864 23.319h-10c-1.315 0-2.541.369-3.592 1h-4.408c-3.859 0-7 3.141-7 7v2h2v-2c0-2.757 2.243-5 5-5h2.26c-.792 1.134-1.26 2.512-1.26 4l1 22h3l1-15h11l1 15h3l1-15h1c2.761 0 5-2.239 5-5v-2l-1-26h4.752c1.794 0 3.248-1.454 3.248-3.248 0-1.588-1.148-2.943-2.714-3.204z" fill="#f5b953"/><g fill="#976947"><circle cx="40" cy="40" r="2"/><path d="m32 43c-2.209 0-4 1.791-4 4h8c0-2.209-1.791-4-4-4z"/><path d="m42 20c0-2.209-1.791-4-4-4-.127 0-.247.026-.372.037l-.292 7.896c.217.037.436.067.664.067 2.209 0 4-1.791 4-4z"/><path d="m46.766 33.923-.303-7.876c-.154-.018-.304-.047-.463-.047-2.209 0-4 1.791-4 4s1.791 4 4 4c.262 0 .518-.029.766-.077z"/><path d="m25.029 33.286c.149 2.073 1.86 3.714 3.971 3.714 2.209 0 4-1.791 4-4h-6c-.685 0-1.345.103-1.971.286z"/><path d="m24 42c0-2.111-1.641-3.822-3.714-3.971-.183.626-.286 1.286-.286 1.971l.271 5.973c2.081-.142 3.729-1.857 3.729-3.973z"/></g><path d="m42 47 1 15h3l1-15v-5" fill="#f5b953"/><path d="m31 47-1 15h-3l-1-15" fill="#f5b953"/><path d="m20.818 58 .182 4h3l.267-4z" fill="#4d5d7a"/><path d="m26.733 58 .267 4h3l.267-4z" fill="#4d5d7a"/><path d="m36.733 58 .267 4h3l.267-4z" fill="#4d5d7a"/><path d="m42.733 58 .267 4h3l.267-4z" fill="#4d5d7a"/><g><path d="m42.5 11c-.827 0-1.5-.673-1.5-1.5s.673-1.5 1.5-1.5 1.5.673 1.5 1.5-.673 1.5-1.5 1.5z" fill="#4d5d7a"/></g><path d="m13 51 .526-2.103c.31-1.242.952-2.375 1.857-3.28.395-.395.617-.931.617-1.49 0-.704-.352-1.362-.938-1.753l-2.062-1.374-2.062 1.375c-.586.39-.938 1.048-.938 1.752 0 .559.222 1.095.617 1.49.905.905 1.547 2.039 1.857 3.28z" fill="#976947"/></g></svg>