<svg id="flat" height="512" viewBox="0 0 512 512" width="512" xmlns="http://www.w3.org/2000/svg"><path d="m416 216h64l-5.26689 10.53377a38.83278 38.83278 0 0 1 -34.73311 21.46623h-24z" fill="#6e7e91"/><path d="m144 352 24 16v16h-48l-40-88v-32h64z" fill="#657587"/><path d="m440 336.51a23.48673 23.48673 0 0 1 -38.53 18.04l-41.47-34.55v-56l-24 40v48l24 16v16h-56l-24-72h-107.62a58.84781 58.84781 0 0 1 -52.65-32.54l-.13.14a55.82443 55.82443 0 0 1 -39.6 16.4l-16 56 16 16v16h-56v-184a71.44025 71.44025 0 0 1 71.43994-71.44h73.93006a54.63521 54.63521 0 0 1 38.63 16h64l6.08008-4.06a71.14078 71.14078 0 0 1 95.27992 15.11l59.75 75.67a31.99689 31.99689 0 0 1 6.89 19.83z" fill="#78889c"/><path d="m488 264v16a47.86681 47.86681 0 0 1 -44.33008 47.73l-3.66992.27v-48h24z" fill="#8f9fb3"/><path d="m376 200h56l-5.26688 10.53377a38.83281 38.83281 0 0 1 -34.73312 21.46623h-16z" fill="#8394a8"/><path d="m400 288h8a8 8 0 0 1 8 8v8a0 0 0 0 1 0 0h-8a8 8 0 0 1 -8-8v-8a0 0 0 0 1 0 0z" fill="#5f6f82"/><path d="m272 312-16 40 16 16v16h-40l-24-24 16-48z" fill="#657587"/><g fill="#6e7e91"><path d="m279.595 311.19-.19764-.39528a7.80782 7.80782 0 0 1 1.84664-9.26072 20.822 20.822 0 0 0 6.756-15.42267v-22.26718a7.84414 7.84414 0 0 1 7.84415-7.84415h.3117a7.84414 7.84414 0 0 1 7.84415 7.84415v22.26718a36.72422 36.72422 0 0 1 -12.20439 27.4646 7.83209 7.83209 0 0 1 -12.20061-2.38593z"/><path d="m119.3232 279.32322-.22675-.22672a7.8462 7.8462 0 0 1 -.69727-10.28023 47.4911 47.4911 0 0 0 9.12929-22.04007 7.84621 7.84621 0 0 1 7.76193-6.7762h.3205a7.86748 7.86748 0 0 1 7.7664 8.992 63.325 63.325 0 0 1 -12.20423 29.46415 7.86749 7.86749 0 0 1 -11.84987.86707z"/></g></svg>