<svg height="512" viewBox="0 0 58 49" width="512" xmlns="http://www.w3.org/2000/svg"><g id="Page-1" fill="none" fill-rule="evenodd"><g id="038---Snail" fill-rule="nonzero"><path id="Shape" d="m52 16c-.2950302-.0000075-.5750006-.1302944-.765-.356l-8-9.5 1.53-1.288 6.465 7.678.775-8.134 1.995.2-1 10.5c-.0384751.4016317-.3145404.7407976-.7.86-.0974421.0282365-.1985638.0417194-.3.04z" fill="#71c285"/><path id="Shape" d="m41.96 29.67c1.1841148-2.8272552 2.199236-5.7223542 3.04-8.67 1-4 3-6 7-6s6 3 6 4-2 4-3 9 1 21-10 21h-29c-6 0-12 0-16-2 4.4403653-1.4671592 7.90455191-4.979718 9.31-9.44z" fill="#7ed09e"/><path id="Shape" d="m41.48 35.96c-.1119276.4867946-.4145472.9083004-.84 1.17-2.01 1.22-8.21 4.38-14.71 1.23-.6306462-.3066851-1.2388281-.6575593-1.82-1.05-.02-.01-.04-.03-.06-.04-2.7993677 2.3958829-6.5877859 3.2833273-10.16 2.38-7.46373343-1.9815421-12.11224886-9.4112954-10.63-16.99.95502247-5.2046121 4.16534614-9.7193233 8.7678332-12.330294 4.6024871-2.61097062 10.1247907-3.05024046 15.0821668-1.199706 10.977 3.945 16.729 15.838 14.37 26.83z" fill="#f29c1f"/><path id="Shape" d="m29.3 32.36c-.5418424 2.2751275-1.7091337 4.3533909-3.37 6-.6306462-.3066851-1.2388281-.6575593-1.82-1.05 1.612004-1.4359887 2.7460912-3.3307867 3.25-5.43 1.1141254-4.4536072-1.5464862-8.9784265-5.98-10.17-1.6100415-.4097968-3.3171406-.1576936-4.74.7-1.4894984.8894832-2.5568192 2.342626-2.96 4.03-.6655542 2.6584906.9231189 5.3596798 3.57 6.07.9375376.243178 1.9336355.095207 2.76-.41.8688967-.5191749 1.4923775-1.3660998 1.73-2.35.3818756-1.5118091-.5229844-3.0496254-2.03-3.45-.5357162-.1380712-.8580711-.6842838-.72-1.22.1380712-.5357162.6842838-.8580712 1.22-.72 2.5662846.6798301 4.1115583 3.2938811 3.47 5.87-.3656365 1.503864-1.3205904 2.7975563-2.65 3.59-1.2838252.7772145-2.8266738 1.004316-4.28.63-3.7061599-.9897719-5.935247-4.767207-5.01-8.49.5277753-2.2035267 1.9233709-4.1003828 3.87-5.26 1.8812387-1.1368313 4.1397734-1.4718292 6.27-.93 5.4955984 1.4673338 8.798407 7.0714255 7.42 12.59z" fill="#e57e25"/><g fill="#f0c419"><path id="Shape" d="m41.97 29.83c-1.2919007 1.1145064-3.049418 1.5221009-4.7 1.09-3.54-.71-4.27 1.11-4.3 1.18-.1527006.3929439-.5284712.6540056-.95.66-.1126686-.0004799-.2243732-.0207899-.33-.06-.5102649-.1750652-.7861067-.7267489-.62-1.24.05-.15 1.25-3.57 6.59-2.5 1.6774856.5088294 3.4531384-.4212744 3.99-2.09.1625494.9798223.2693876 1.9680764.32 2.96z"/><path id="Shape" d="m40.16 21.77c-.2671381.4453013-.61671.8356-1.03 1.15-1.0609657.7705907-2.4119425 1.0238988-3.68.69-1.0090719-.3310161-2.1003275.1882104-2.48 1.18-.1468496.3975125-.5262314.661083-.95.66-.1126686-.0004799-.2243732-.0207899-.33-.06-.5151498-.1808797-.7876375-.7437232-.61-1.26.7112217-1.934227 2.7781748-3.0088692 4.77-2.48.7031555.2079506 1.4624612.09057 2.07-.32.5762556-.5098836.9608598-1.2014655 1.09-1.96.4312728.776133.8153044 1.5775904 1.15 2.4z"/><path id="Shape" d="m36.37 15.56c-1.1589414 1.1307245-2.7321314 1.7346848-4.35 1.67-2.55 0-2.62 1.56-2.62 1.74 0 .5522847-.4477153 1-1 1s-1-.4477153-1-1c0-1.29.96-3.74 4.62-3.74 1.1140372.0730363 2.2038294-.3475211 2.98-1.15.48.47.94.97 1.37 1.48z"/><path id="Shape" d="m28.97 9.89c-.3319852 1.6283183-1.4475383 2.9871968-2.98 3.63-.4917241.1340052-.9024196.4723607-1.1280476.929353-.2256281.4569924-.2445427.9887794-.0519524 1.460647.1725506.5273258-.1134977 1.0949529-.64 1.27-.1004574.0312064-.2048254.04804-.31.05-.4319651-.0021836-.8143169-.2798918-.95-.69-.3542684-.9764274-.2927165-2.055404.1702958-2.9852084.4630124-.9298043 1.2869909-1.6291173 2.2797042-1.9347916.9511379-.4987774 1.6028972-1.4261377 1.75-2.49.64.23 1.26.48 1.86.76z"/><path id="Shape" d="m19.31 15.76c-.1694502.3362797-.5134418.5488587-.89.55-.1556731.0015139-.3096197-.0326964-.45-.1-.9-.45-2.34-2.05-1.41-4.87.3437695-.9157441.4336046-1.90738581.26-2.87.6490264-.15619775 1.3068893-.27307696 1.97-.35.2309989 1.2899996.1171593 2.6181283-.33 3.85-.63 1.9.4 2.45.41 2.45.490313.2495756.6869243.8483464.44 1.34z"/><path id="Shape" d="m14.88 17.14c0 .5522847-.4477153 1-1 1-.9982166.0272686-1.963427-.3586789-2.6676404-1.0666785-.7042135-.7079996-1.0849801-1.6752654-1.0523596-2.6733215-.0258864-.790087-.29089315-1.5537247-.76-2.19.50792714-.4284368 1.0387059-.8290245 1.59-1.2.7360106.9792598 1.145329 2.1652337 1.17 3.39-.0337152.4674649.13592.9267431.4654051 1.2600593.329485.3333163.7867715.5082496 1.2545949.4799407.5522847 0 1 .4477153 1 1z"/><path id="Shape" d="m11.25 20.81c-.0054183.5445018-.4454982.9845817-.99.99-1.55183632-.0693914-2.94114149-.982802-3.62-2.38-.31630301-.7466267-.98377798-1.2866065-1.78-1.44.30749793-.6198074.65143338-1.2208597 1.03-1.8 1.12302298.4130465 2.03644204 1.2545428 2.54 2.34.33926555.7258837 1.04143964 1.2143526 1.84 1.28.5483718.0109411.9855939.4615476.98 1.01z"/><path id="Shape" d="m9.33 24.92c-.24957563-.490313-.84834645-.6869243-1.34-.44-.8946964.3111657-1.88820018.0175391-2.47-.73-.58259178-.6438471-1.39344433-1.034922-2.26-1.09-.12098271.6540953-.19782288 1.3155889-.23 1.98.41443942.0130665.80364821.2022147 1.07.52.81897.8997634 1.97347954 1.4209213 3.19 1.44.55198656.0071147 1.09860401-.1090415 1.6-.34.49031299-.2495756.6869243-.8483464.44-1.34z"/><path id="Shape" d="m10.06 30.65c-2.19 2.2-3.62 1.21-5.25 1.21-.11067815.0000601-.22112541.0101008-.33.03-.29687186-.6047399-.55083209-1.2296157-.76-1.87.35449884-.1020435.72112986-.1558609 1.09-.16.48978956.0045482.97827127.0513889 1.46.14.8712145.2888334 1.82922709-.0183774 2.37-.76.38936075-.3921222 1.02287783-.3943607 1.415-.005.3921222.3893607.3943607 1.0228778.005 1.415z"/></g><circle id="Oval" cx="44" cy="5" fill="#547580" r="3"/><circle id="Oval" cx="53" cy="3" fill="#547580" r="3"/><path id="Shape" d="m45 46h-4c-.5522847 0-1-.4477153-1-1s.4477153-1 1-1h4c.5522847 0 1 .4477153 1 1s-.4477153 1-1 1z" fill="#71c285"/><path id="Shape" d="m36 46h-21c-.5522847 0-1-.4477153-1-1s.4477153-1 1-1h21c.5522847 0 1 .4477153 1 1s-.4477153 1-1 1z" fill="#71c285"/></g></g></svg>